<?xml version="1.0" encoding="utf-8"?>
<!-- Generator: Adobe Illustrator 27.6.1, SVG Export Plug-In . SVG Version: 6.00 Build 0)  -->
<svg version="1.1" id="Camada_1" xmlns="http://www.w3.org/2000/svg" xmlns:xlink="http://www.w3.org/1999/xlink" x="0px" y="0px"
	 viewBox="0 0 800 800" style="enable-background:new 0 0 800 800;" xml:space="preserve">
<style type="text/css">
	.st0{fill:#00AF9C;}
</style>
<path class="st0" d="M450.4,350.4l273.2,0.5c27.6,0,50,22.4,49.9,50.1c0,27.6-22.4,50-50.1,49.9l-273-0.5l0.2,273.2
	c0,27.6-22.4,50-50,50c-27.6,0-50-22.4-50-50l-0.2-273.4l-273.1-0.5c-27.6,0-50-22.4-49.9-50.1s22.4-50,50.1-49.9l273,0.5
	l-0.2-272.9c0-27.6,22.4-50,50-50c27.6,0,50,22.4,50,50L450.4,350.4L450.4,350.4z"/>
</svg>
